<svg xmlns="http://www.w3.org/2000/svg" width="17" height="18" viewBox="0 0 17 18">
    <g>
        <path d="M15.4 3.5c.387 0 .7.313.7.7 0 .354-.263.647-.605.694L15.4 4.9H1c-.387 0-.7-.313-.7-.7 0-.354.263-.647.605-.694L1 3.5h14.4z"/>
        <path d="M13.8 3.5c.354 0 .647.263.694.605l.006.095v11.2c0 1.217-.946 2.214-2.143 2.295l-.157.005h-8c-1.217 0-2.214-.946-2.295-2.143L1.9 15.4V4.2c0-.387.313-.7.7-.7.354 0 .647.263.694.605L3.3 4.2v11.2c0 .459.343.837.787.893l.113.007h8c.459 0 .837-.343.893-.787l.007-.113V4.2c0-.387.313-.7.7-.7zM9.8.3c1.217 0 2.214.946 2.295 2.143l.005.157v1.6c0 .387-.313.7-.7.7-.354 0-.647-.263-.694-.605L10.7 4.2V2.6c0-.459-.343-.837-.787-.893L9.8 1.7H6.6c-.459 0-.837.343-.893.787L5.7 2.6v1.6c0 .387-.313.7-.7.7-.354 0-.647-.263-.694-.605L4.3 4.2V2.6c0-1.217.946-2.214 2.143-2.295L6.6.3h3.2z"/>
        <path d="M6.6 7.5c.354 0 .647.263.694.605L7.3 8.2V13c0 .387-.313.7-.7.7-.354 0-.647-.263-.694-.605L5.9 13V8.2c0-.387.313-.7.7-.7zM9.8 7.5c.354 0 .647.263.694.605l.006.095V13c0 .387-.313.7-.7.7-.354 0-.647-.263-.694-.605L9.1 13V8.2c0-.387.313-.7.7-.7z"/>
    </g>
</svg>
